<svg width="58" height="59" viewBox="0 0 58 59" fill="none" xmlns="http://www.w3.org/2000/svg">
<g clip-path="url(#clip0_46_3049)">
<path d="M58 29.5C58 13.2077 45.0162 0 29 0C12.9838 0 0 13.2077 0 29.5C0 44.2242 10.6049 56.4287 24.4688 58.6416V38.0273H17.1055V29.5H24.4688V23.0008C24.4688 15.6073 28.7984 11.5234 35.4226 11.5234C38.5954 11.5234 41.9141 12.0996 41.9141 12.0996V19.3594H38.2573C34.6548 19.3594 33.5312 21.6334 33.5312 23.9664V29.5H41.5742L40.2885 38.0273H33.5312V58.6416C47.3951 56.4287 58 44.2244 58 29.5Z" fill="#1877F2"/>
<path d="M40.2885 37.8994L41.5742 29.3721H33.5312V23.8385C33.5312 21.5052 34.6548 19.2314 38.2573 19.2314H41.9141V11.9717C41.9141 11.9717 38.5954 11.3955 35.4224 11.3955C28.7984 11.3955 24.4688 15.4794 24.4688 22.8729V29.3721H17.1055V37.8994H24.4688V58.5137C25.9677 58.7527 27.4827 58.8725 29 58.8721C30.5173 58.8725 32.0323 58.7527 33.5312 58.5137V37.8994H40.2885Z" fill="white"/>
</g>
<defs>
<clipPath id="clip0_46_3049">
<rect width="58" height="59" fill="white"/>
</clipPath>
</defs>
</svg>
