<svg width="45" height="42" viewBox="0 0 45 42" fill="none" xmlns="http://www.w3.org/2000/svg">
<path d="M35.7125 5.25C36.6872 5.25 37.6219 5.61875 38.3111 6.27513C39.0003 6.9315 39.3875 7.82174 39.3875 8.75V33.25C39.3875 34.1783 39.0003 35.0685 38.3111 35.7249C37.6219 36.3813 36.6872 36.75 35.7125 36.75H9.9875C9.01283 36.75 8.07808 36.3813 7.38888 35.7249C6.69969 35.0685 6.3125 34.1783 6.3125 33.25V8.75C6.3125 7.82174 6.69969 6.9315 7.38888 6.27513C8.07808 5.61875 9.01283 5.25 9.9875 5.25H35.7125ZM34.7937 32.375V23.1C34.7937 21.5869 34.1626 20.1359 33.0392 19.066C31.9159 17.9961 30.3922 17.395 28.8035 17.395C27.2416 17.395 25.4225 18.305 24.5405 19.67V17.7275H19.4139V32.375H24.5405V23.7475C24.5405 22.4 25.6797 21.2975 27.0946 21.2975C27.7769 21.2975 28.4312 21.5556 28.9137 22.0151C29.3961 22.4746 29.6671 23.0977 29.6671 23.7475V32.375H34.7937ZM13.442 14.98C14.2607 14.98 15.0459 14.6703 15.6248 14.1189C16.2038 13.5675 16.529 12.8197 16.529 12.04C16.529 10.4125 15.1509 9.0825 13.442 9.0825C12.6184 9.0825 11.8285 9.39409 11.2462 9.94873C10.6638 10.5034 10.3366 11.2556 10.3366 12.04C10.3366 13.6675 11.7331 14.98 13.442 14.98ZM15.9961 32.375V17.7275H10.9062V32.375H15.9961Z" fill="white"/>
</svg>
