<svg width="171" height="171" viewBox="0 0 171 171" fill="none" xmlns="http://www.w3.org/2000/svg">
<path d="M85 147C76.5267 147 68.5183 145.371 60.975 142.114C53.4317 138.857 46.8452 134.414 41.2156 128.784C35.5819 123.155 31.1385 116.568 27.8856 109.025C24.6327 101.482 23.0041 93.4733 23 85C23 76.4233 24.6285 68.3902 27.8856 60.9006C31.1427 53.411 35.586 46.8493 41.2156 41.2156C46.8452 35.5819 53.4296 31.1385 60.9688 27.8856C68.508 24.6327 76.5184 23.0041 85 23C86.7567 23 88.2302 23.5952 89.4206 24.7856C90.611 25.976 91.2041 27.4475 91.2 29.2C91.2 30.9567 90.6048 32.4302 89.4144 33.6206C88.224 34.811 86.7525 35.4041 85 35.4C71.2567 35.4 59.5531 40.2319 49.8894 49.8956C40.2257 59.5593 35.3959 71.2608 35.4 85C35.4 98.7433 40.2319 110.447 49.8956 120.111C59.5593 129.774 71.2608 134.604 85 134.6C98.7433 134.6 110.447 129.77 120.111 120.111C129.774 110.451 134.604 98.7475 134.6 85C134.6 83.2433 135.195 81.7719 136.386 80.5856C137.576 79.3993 139.047 78.8041 140.8 78.8C142.557 78.8 144.03 79.3952 145.221 80.5856C146.411 81.776 147.004 83.2475 147 85C147 93.4733 145.371 101.482 142.114 109.025C138.857 116.568 134.414 123.157 128.784 128.791C123.155 134.42 116.593 138.864 109.099 142.121C101.606 145.378 93.5725 147.004 85 147Z" fill="#FBBC09"/>
<path d="M57.5682 94.3182C55.8182 94.3182 54.2614 94.0341 52.8977 93.4659C51.5417 92.8902 50.4773 92.1061 49.7045 91.1136C48.9318 90.1212 48.5455 88.9962 48.5455 87.7386C48.5455 86.7689 48.7652 85.8788 49.2045 85.0682C49.6515 84.25 50.2576 83.572 51.0227 83.0341C51.7879 82.4886 52.6439 82.1402 53.5909 81.9886V81.8295C52.3485 81.5795 51.3409 80.9773 50.5682 80.0227C49.7955 79.0606 49.4091 77.9432 49.4091 76.6705C49.4091 75.4659 49.7614 74.3939 50.4659 73.4545C51.1705 72.5076 52.1364 71.7652 53.3636 71.2273C54.5985 70.6818 56 70.4091 57.5682 70.4091C59.1364 70.4091 60.5341 70.6818 61.7614 71.2273C62.9962 71.7727 63.9659 72.5189 64.6705 73.4659C65.375 74.4053 65.7311 75.4735 65.7386 76.6705C65.7311 77.9508 65.3371 79.0682 64.5568 80.0227C63.7765 80.9773 62.7765 81.5795 61.5568 81.8295V81.9886C62.4886 82.1402 63.3333 82.4886 64.0909 83.0341C64.8561 83.572 65.4621 84.25 65.9091 85.0682C66.3636 85.8788 66.5947 86.7689 66.6023 87.7386C66.5947 88.9962 66.2045 90.1212 65.4318 91.1136C64.6591 92.1061 63.5909 92.8902 62.2273 93.4659C60.8712 94.0341 59.3182 94.3182 57.5682 94.3182ZM57.5682 90.7045C58.3485 90.7045 59.0303 90.5644 59.6136 90.2841C60.197 89.9962 60.6515 89.6023 60.9773 89.1023C61.3106 88.5947 61.4773 88.0114 61.4773 87.3523C61.4773 86.678 61.3068 86.0833 60.9659 85.5682C60.625 85.0455 60.1629 84.6364 59.5795 84.3409C58.9962 84.0379 58.3258 83.8864 57.5682 83.8864C56.8182 83.8864 56.1477 84.0379 55.5568 84.3409C54.9659 84.6364 54.5 85.0455 54.1591 85.5682C53.8258 86.0833 53.6591 86.678 53.6591 87.3523C53.6591 88.0114 53.822 88.5947 54.1477 89.1023C54.4735 89.6023 54.9318 89.9962 55.5227 90.2841C56.1136 90.5644 56.7955 90.7045 57.5682 90.7045ZM57.5682 80.3068C58.2197 80.3068 58.7992 80.1742 59.3068 79.9091C59.8144 79.6439 60.2121 79.2765 60.5 78.8068C60.7879 78.3371 60.9318 77.7955 60.9318 77.1818C60.9318 76.5758 60.7879 76.0455 60.5 75.5909C60.2121 75.1288 59.8182 74.7689 59.3182 74.5114C58.8182 74.2462 58.2348 74.1136 57.5682 74.1136C56.9091 74.1136 56.3258 74.2462 55.8182 74.5114C55.3106 74.7689 54.9129 75.1288 54.625 75.5909C54.3447 76.0455 54.2045 76.5758 54.2045 77.1818C54.2045 77.7955 54.3485 78.3371 54.6364 78.8068C54.9242 79.2765 55.322 79.6439 55.8295 79.9091C56.3371 80.1742 56.9167 80.3068 57.5682 80.3068ZM78.4631 70.4091C79.66 70.4091 80.8116 70.6098 81.9176 71.0114C83.0313 71.4129 84.0237 72.053 84.8949 72.9318C85.7737 73.8106 86.4669 74.9773 86.9744 76.4318C87.4896 77.8788 87.7509 79.6553 87.7585 81.7614C87.7585 83.7386 87.535 85.5038 87.0881 87.0568C86.6487 88.6023 86.0161 89.9167 85.1903 91C84.3646 92.0833 83.3684 92.9091 82.2017 93.4773C81.035 94.0379 79.732 94.3182 78.2926 94.3182C76.7396 94.3182 75.3684 94.0189 74.179 93.4205C72.9896 92.8144 72.0313 91.9924 71.304 90.9545C70.5843 89.9091 70.1487 88.7348 69.9972 87.4318H74.8494C75.0388 88.2803 75.4366 88.9394 76.0426 89.4091C76.6487 89.8712 77.3987 90.1023 78.2926 90.1023C79.8078 90.1023 80.9593 89.4432 81.7472 88.125C82.535 86.7992 82.9328 84.9848 82.9403 82.6818H82.7812C82.4328 83.3636 81.9631 83.9508 81.3722 84.4432C80.7813 84.928 80.1032 85.303 79.3381 85.5682C78.5805 85.8333 77.7737 85.9659 76.9176 85.9659C75.5464 85.9659 74.3229 85.6439 73.2472 85C72.1714 84.3561 71.3229 83.4697 70.7017 82.3409C70.0805 81.2121 69.7699 79.9242 69.7699 78.4773C69.7623 76.9167 70.1222 75.5265 70.8494 74.3068C71.5767 73.0871 72.5919 72.1326 73.8949 71.4432C75.2055 70.7462 76.7282 70.4015 78.4631 70.4091ZM78.4972 74.2727C77.732 74.2727 77.0502 74.4545 76.4517 74.8182C75.8608 75.1818 75.3911 75.6705 75.0426 76.2841C74.7017 76.8977 74.535 77.5833 74.5426 78.3409C74.5426 79.1061 74.7093 79.7955 75.0426 80.4091C75.3835 81.0152 75.8456 81.5 76.429 81.8636C77.0199 82.2197 77.6941 82.3977 78.4517 82.3977C79.0199 82.3977 79.5464 82.2917 80.0312 82.0795C80.5161 81.8674 80.9366 81.5758 81.2926 81.2045C81.6563 80.8258 81.9403 80.3902 82.1449 79.8977C82.3494 79.4053 82.4517 78.8826 82.4517 78.3295C82.4441 77.5947 82.2699 76.9205 81.929 76.3068C81.5881 75.6932 81.1184 75.2008 80.5199 74.8295C79.9214 74.4583 79.2472 74.2727 78.4972 74.2727ZM103.906 89.6364V88.4091C103.906 87.4773 104.103 86.6212 104.497 85.8409C104.899 85.053 105.478 84.4242 106.236 83.9545C107.001 83.4773 107.933 83.2386 109.031 83.2386C110.145 83.2386 111.08 83.4735 111.838 83.9432C112.603 84.4129 113.179 85.0417 113.565 85.8295C113.959 86.6098 114.156 87.4697 114.156 88.4091V89.6364C114.156 90.5682 113.959 91.428 113.565 92.2159C113.171 92.9962 112.592 93.6212 111.827 94.0909C111.062 94.5682 110.13 94.8068 109.031 94.8068C107.918 94.8068 106.982 94.5682 106.224 94.0909C105.467 93.6212 104.891 92.9962 104.497 92.2159C104.103 91.428 103.906 90.5682 103.906 89.6364ZM107.213 88.4091V89.6364C107.213 90.1742 107.342 90.6818 107.599 91.1591C107.865 91.6364 108.342 91.875 109.031 91.875C109.721 91.875 110.19 91.6402 110.44 91.1705C110.698 90.7008 110.827 90.1894 110.827 89.6364V88.4091C110.827 87.8561 110.705 87.3409 110.463 86.8636C110.221 86.3864 109.743 86.1477 109.031 86.1477C108.349 86.1477 107.876 86.3864 107.611 86.8636C107.346 87.3409 107.213 87.8561 107.213 88.4091ZM91.9631 76.3182V75.0909C91.9631 74.1515 92.1638 73.2917 92.5653 72.5114C92.9669 71.7235 93.5464 71.0947 94.304 70.625C95.0691 70.1553 95.9934 69.9205 97.0767 69.9205C98.1979 69.9205 99.1373 70.1553 99.8949 70.625C100.652 71.0947 101.228 71.7235 101.622 72.5114C102.016 73.2917 102.213 74.1515 102.213 75.0909V76.3182C102.213 77.2576 102.012 78.1174 101.611 78.8977C101.217 79.678 100.637 80.303 99.8722 80.7727C99.1146 81.2348 98.1828 81.4659 97.0767 81.4659C95.9706 81.4659 95.035 81.2311 94.2699 80.7614C93.5123 80.2841 92.9366 79.6591 92.5426 78.8864C92.1563 78.1061 91.9631 77.25 91.9631 76.3182ZM95.2926 75.0909V76.3182C95.2926 76.8712 95.4214 77.3826 95.679 77.8523C95.9441 78.322 96.41 78.5568 97.0767 78.5568C97.7737 78.5568 98.2472 78.322 98.4972 77.8523C98.7547 77.3826 98.8835 76.8712 98.8835 76.3182V75.0909C98.8835 74.5379 98.7623 74.0227 98.5199 73.5455C98.2775 73.0682 97.7964 72.8295 97.0767 72.8295C96.4025 72.8295 95.9366 73.072 95.679 73.5568C95.4214 74.0417 95.2926 74.553 95.2926 75.0909ZM93.4631 94L109.463 70.7273H112.44L96.4403 94H93.4631Z" fill="white"/>
</svg>
