<svg width="37" height="37" viewBox="0 0 37 37" fill="none" xmlns="http://www.w3.org/2000/svg">
<path fill-rule="evenodd" clip-rule="evenodd" d="M25.1677 22.9693L33.4619 31.2635C33.7534 31.5552 33.9171 31.9508 33.917 32.3632C33.9168 32.7757 33.7529 33.1711 33.4611 33.4627C33.1694 33.7542 32.7738 33.9179 32.3614 33.9177C31.9489 33.9176 31.5535 33.7536 31.2619 33.4619L22.9678 25.1677C20.4883 27.0881 17.3704 27.9919 14.2483 27.6951C11.1262 27.3982 8.23443 25.9232 6.16127 23.57C4.08812 21.2167 2.98931 18.1621 3.08838 15.0275C3.18744 11.8929 4.47695 8.91371 6.69457 6.6961C8.91219 4.47848 11.8913 3.18897 15.026 3.0899C18.1606 2.99083 21.2152 4.08964 23.5684 6.1628C25.9217 8.23595 27.3967 11.1277 27.6935 14.2498C27.9903 17.3719 27.0866 20.4899 25.1662 22.9693H25.1677ZM15.4167 24.6667C17.8699 24.6667 20.2227 23.6921 21.9574 21.9574C23.6921 20.2227 24.6667 17.8699 24.6667 15.4167C24.6667 12.9634 23.6921 10.6107 21.9574 8.87594C20.2227 7.14123 17.8699 6.16668 15.4167 6.16668C12.9634 6.16668 10.6107 7.14123 8.87596 8.87594C7.14125 10.6107 6.1667 12.9634 6.1667 15.4167C6.1667 17.8699 7.14125 20.2227 8.87596 21.9574C10.6107 23.6921 12.9634 24.6667 15.4167 24.6667Z" fill="#005B5C"/>
</svg>
