<svg width="56" height="56" viewBox="0 0 56 56" fill="none" xmlns="http://www.w3.org/2000/svg">
<path d="M14.6836 10.017C15.1212 9.57961 15.7146 9.33387 16.3333 9.33387C16.952 9.33387 17.5454 9.57961 17.983 10.017L27.3163 19.3504C27.7413 19.7904 27.9765 20.3798 27.9712 20.9916C27.9659 21.6034 27.7205 22.1887 27.2879 22.6213C26.8553 23.0539 26.27 23.2993 25.6582 23.3046C25.0464 23.3099 24.457 23.0747 24.017 22.6497L18.6666 17.2994V44.3334C18.6666 44.9522 18.4208 45.5457 17.9832 45.9833C17.5456 46.4209 16.9521 46.6667 16.3333 46.6667C15.7145 46.6667 15.121 46.4209 14.6834 45.9833C14.2458 45.5457 14 44.9522 14 44.3334V17.2994L8.64964 22.6497C8.20957 23.0747 7.62016 23.3099 7.00837 23.3046C6.39658 23.2993 5.81135 23.0539 5.37873 22.6213C4.94611 22.1887 4.70072 21.6034 4.6954 20.9916C4.69008 20.3798 4.92527 19.7904 5.35031 19.3504L14.6836 10.017ZM37.3333 38.7007V11.6667C37.3333 11.0479 37.5791 10.4544 38.0167 10.0168C38.4543 9.57921 39.0478 9.33337 39.6666 9.33337C40.2855 9.33337 40.879 9.57921 41.3166 10.0168C41.7541 10.4544 42 11.0479 42 11.6667V38.7007L47.3503 33.3504C47.7904 32.9253 48.3798 32.6902 48.9916 32.6955C49.6034 32.7008 50.1886 32.9462 50.6212 33.3788C51.0538 33.8114 51.2992 34.3966 51.3045 35.0084C51.3099 35.6202 51.0747 36.2096 50.6496 36.6497L41.3163 45.983C40.8787 46.4205 40.2854 46.6662 39.6666 46.6662C39.0479 46.6662 38.4545 46.4205 38.017 45.983L28.6836 36.6497C28.2586 36.2096 28.0234 35.6202 28.0287 35.0084C28.034 34.3966 28.2794 33.8114 28.7121 33.3788C29.1447 32.9462 29.7299 32.7008 30.3417 32.6955C30.9535 32.6902 31.5429 32.9253 31.983 33.3504L37.3333 38.7007Z" fill="#005B5C"/>
</svg>
