<svg width="71" height="71" viewBox="0 0 71 71" fill="none" xmlns="http://www.w3.org/2000/svg">
<path d="M64.508 29.7061H62.1251V29.5833H35.5001V41.4166H52.2191C49.78 48.3051 43.2258 53.25 35.5001 53.25C25.6976 53.25 17.7501 45.3024 17.7501 35.5C17.7501 25.6975 25.6976 17.75 35.5001 17.75C40.0249 17.75 44.1414 19.4569 47.2757 22.2451L55.6434 13.8775C50.3598 8.95336 43.2923 5.91663 35.5001 5.91663C19.1627 5.91663 5.91675 19.1626 5.91675 35.5C5.91675 51.8374 19.1627 65.0833 35.5001 65.0833C51.8375 65.0833 65.0834 51.8374 65.0834 35.5C65.0834 33.5164 64.8793 31.5802 64.508 29.7061Z" fill="#FFC107"/>
<path d="M9.32764 21.7304L19.0472 28.8585C21.6772 22.3472 28.0465 17.75 35.5 17.75C40.0248 17.75 44.1413 19.4569 47.2757 22.2451L55.6433 13.8775C50.3597 8.95336 43.2923 5.91663 35.5 5.91663C24.1371 5.91663 14.2828 12.3318 9.32764 21.7304Z" fill="#FF3D00"/>
<path d="M35.4999 65.0834C43.1413 65.0834 50.0845 62.1591 55.334 57.4035L46.178 49.6557C43.1081 51.9904 39.3568 53.2531 35.4999 53.25C27.8053 53.25 21.2718 48.3436 18.8105 41.4966L9.16333 48.9294C14.0594 58.51 24.0023 65.0834 35.4999 65.0834Z" fill="#4CAF50"/>
<path d="M64.5079 29.7061H62.125V29.5834H35.5V41.4167H52.219C51.0523 44.6952 48.9506 47.5599 46.1737 49.6571L46.1781 49.6542L55.3341 57.4021C54.6863 57.9908 65.0833 50.2917 65.0833 35.5C65.0833 33.5165 64.8792 31.5802 64.5079 29.7061Z" fill="#1976D2"/>
</svg>
